<svg xmlns="http://www.w3.org/2000/svg" viewBox="0 0 512 512" fill="none">
  <defs>
    <linearGradient id="bg" x1="72" y1="40" x2="440" y2="472" gradientUnits="userSpaceOnUse">
      <stop stop-color="#1a1a20"/>
      <stop offset="1" stop-color="#070709"/>
    </linearGradient>
    <radialGradient id="glowPink" cx="0" cy="0" r="1" gradientUnits="userSpaceOnUse" gradientTransform="translate(148 132) rotate(34) scale(220 180)">
      <stop stop-color="#ff375f" stop-opacity="0.42"/>
      <stop offset="1" stop-color="#ff375f" stop-opacity="0"/>
    </radialGradient>
    <radialGradient id="glowPurple" cx="0" cy="0" r="1" gradientUnits="userSpaceOnUse" gradientTransform="translate(392 388) rotate(-18) scale(200 160)">
      <stop stop-color="#bf5af2" stop-opacity="0.34"/>
      <stop offset="1" stop-color="#bf5af2" stop-opacity="0"/>
    </radialGradient>
    <linearGradient id="ribbon" x1="256" y1="118" x2="256" y2="248" gradientUnits="userSpaceOnUse">
      <stop stop-color="#ff5e7c"/>
      <stop offset="1" stop-color="#b565f0"/>
    </linearGradient>
    <linearGradient id="card" x1="188" y1="156" x2="324" y2="348" gradientUnits="userSpaceOnUse">
      <stop stop-color="#ffffff"/>
      <stop offset="1" stop-color="#ececf1"/>
    </linearGradient>
    <filter id="cardShadow" x="-30%" y="-30%" width="160%" height="160%">
      <feDropShadow dx="0" dy="14" stdDeviation="16" flood-color="#000000" flood-opacity="0.38"/>
    </filter>
    <filter id="pocketShadow" x="-20%" y="-20%" width="140%" height="140%">
      <feDropShadow dx="0" dy="10" stdDeviation="12" flood-color="#000000" flood-opacity="0.28"/>
    </filter>
  </defs>

  <rect width="512" height="512" rx="108" fill="url(#bg)"/>
  <rect width="512" height="512" rx="108" fill="url(#glowPink)"/>
  <rect width="512" height="512" rx="108" fill="url(#glowPurple)"/>

  <path
    d="M118 214c0-58 61-96 138-96s138 38 138 96v126c0 62-61 100-138 100s-138-38-138-100V214z"
    fill="#101014"
    opacity="0.72"
    filter="url(#pocketShadow)"
  />

  <path
    d="M132 206c0-48 56-78 124-78s124 30 124 78v118c0 50-56 82-124 82s-124-32-124-82V206z"
    fill="#18181f"
    stroke="rgba(255,255,255,0.08)"
    stroke-width="4"
  />

  <g filter="url(#cardShadow)">
    <rect x="176" y="148" width="160" height="208" rx="22" fill="url(#card)"/>
    <rect x="204" y="196" width="104" height="14" rx="7" fill="#d4d4dc"/>
    <rect x="204" y="224" width="88" height="10" rx="5" fill="#e7e7ee"/>
    <rect x="204" y="246" width="96" height="10" rx="5" fill="#e7e7ee"/>
    <rect x="204" y="268" width="72" height="10" rx="5" fill="#e7e7ee"/>
    <rect x="204" y="290" width="84" height="10" rx="5" fill="#e7e7ee"/>
  </g>

  <path d="M256 108v152l-34-26-34 26V108h68z" fill="url(#ribbon)"/>

  <path
    d="M148 318c36 28 80 42 108 42s72-14 108-42"
    stroke="url(#ribbon)"
    stroke-width="10"
    stroke-linecap="round"
    opacity="0.55"
  />
</svg>
